<svg
  xmlns="http://www.w3.org/2000/svg"
  viewBox="125.442 45 1015.922 910.003"
  width="480"
  height="480"
>
  <path
    fill="#d8e0ef"
    d="m56.56,328.86c-11.73-49.34-23.46-98.72-32.15-148.69-5.17-29.74-6.35-66.62,18.92-83.13,13.61-8.9,31.01-8.74,47.26-8.28,176.05,4.97,352.11,9.94,528.16,14.91,24.4.69,51.52,2.53,68.34,20.22,18.1,19.04,17.09,48.7,14.93,74.88-8.59,104.3-17.19,208.61-25.78,312.91-1.98,24.08-4.02,48.44-11.75,71.33-7.73,22.89-21.84,44.53-42.86,56.44-23.2,13.15-51.35,12.93-78.01,12.35-117.44-2.53-234.87-5.06-352.31-7.58-15.35-.33-31.17-.76-45.2-6.99-22.69-10.08-23.47-28.32-28.01-49.44-6.21-28.89-13.68-57.56-20.51-86.3-13.68-57.54-27.35-115.08-41.03-172.62Z"
    transform="translate(96.1 40.48) scale(1.37095)"
  />
  <g transform="translate(246.89 134.34)">
    <path
      fill="#ff9996"
      d="m449.62,129.62s-10.95,21.7-46.17,27.53c-35.21,5.83-18.28-16.68-18.28-16.68l5.43-10.82,5.06-10.08,31.12-22.11c-.02.19-.02.37-.02.56-.13,11.92,22.86,31.6,22.86,31.6Z"
    />
    <path d="m426.78,97.46c-.02.19-.02.37-.02.56-2.88,11.98-10.2,28.11-28.84,31.7-3.07.59-5.48.53-7.32-.07l5.06-10.08,31.12-22.11Z" />
    <path
      fill="#1B3E75"
      d="m325.62,351.2s-124.18,119.25-128.63,125.58l-.05.05h.01c-7.13,10.16-11.32,22.52-11.32,35.87,0,34.52,27.98,62.5,62.5,62.5,17.42,0,33.16-7.13,44.5-18.62h0s163-154.38,163-154.38c17-135-130-51-130-51Z"
    />
    <polygon
      fill="#f2f2f2"
      points="373.62 138.2 362.31 352.12 433.14 351.2 446.44 124.45 403.22 146.04 373.62 138.2"
    />
    <polygon
      fill="#f90065"
      points="395.65 352.04 378.62 331.54 398.83 164.2 405.37 164.2 421.98 332.54 395.65 352.04"
    />
    <path
      fill="#ff9996"
      d="M144.62 157.2l-16.35-19.62c-13.83-16.59-14.31-40.55-1.15-57.68l3.3-4.3c3.46-4.5 3.66-10.71.52-15.43l-19.31-28.97 63-22 20.58 61.04c1.66 4.91.87 10.32-2.12 14.55l-16.22 22.98c-3 4.25-2.4 10.07 1.4 13.63l8.36 7.8c17 16-25 48-42 28zM444.57 87.85c-1.83-3.23-5.14-5.16-8.83-5.54-1.35-15.98-11.61-25.97-25.47-26.1-15-.14-28.53 11.33-28.7 29.66s1.54 33.22 16.54 33.36c8.4.08 19.19-4.48 27.08-11.73 4.82.15 10.32-1.1 13.74-3.04 6.29-3.55 8.81-10.99 5.64-16.62z"
    />
    <path d="m440.89,97.56c-1.49-3.24-3.97-6.07-6.98-7.97l.57-.9c3.19,2.01,5.81,5,7.38,8.43l-.97.45Z" />
    <path fill="#fff" d="m439.01,93.47l-2.06,4.63" />
    <rect
      width="5.07"
      height="1.07"
      x="435.45"
      y="95.25"
      transform="rotate(-65.97 437.972 95.796)"
    />
    <ellipse
      cx="408.19"
      cy="84.73"
      rx="2.37"
      ry="1.7"
      transform="rotate(-89.46 408.2 84.717)"
    />
    <ellipse
      cx="390.56"
      cy="83.99"
      rx="2.37"
      ry="1.7"
      transform="rotate(-89.46 390.573 83.986)"
    />
    <path d="M390.89 96.17l-.37-1c2.86-1.06 5.23-3.26 6.5-6.04 1.27-2.78 1.39-6.01.32-8.87l1-.37c1.17 3.12 1.04 6.66-.35 9.69-1.39 3.03-3.98 5.44-7.1 6.6zM397.84 104.3l-.03-1.07c4.34-.11 8.58-2.97 10.3-6.95l.98.42c-1.92 4.42-6.44 7.47-11.26 7.6z" />
    <path d="m398.33,119.77c-.08,0-.15,0-.23,0v-1.07c.08,0,.15,0,.22,0,8.31,0,18.93-4.64,26.51-11.59l.16-.15h.22c4.64.15,10.06-1.04,13.46-2.96,2.93-1.65,5.1-4.22,6.12-7.24,1.01-2.99.77-6.06-.69-8.65-1.68-2.97-4.75-4.89-8.42-5.27l-.44-.05-.04-.44c-1.3-15.43-11.09-25.48-24.94-25.61v-1.07c14.32.13,24.47,10.38,25.97,26.16,3.83.52,7.02,2.6,8.8,5.75,1.61,2.85,1.89,6.23.77,9.52-1.11,3.26-3.45,6.04-6.61,7.82-3.5,1.98-9.01,3.22-13.8,3.11-7.86,7.15-18.43,11.73-27.06,11.73Z" />
    <path
      fill="#1B3E75"
      d="m576.62,351.2l-132.8-1.94-65.2,166.94c-3,10-5,17.21-5,26.5,0,26.23,21.27,47.5,47.5,47.5,19.03,0,35.44-11.2,43.02-27.37l93.14-114.04c20.41-25,28.21-57.98,21.16-89.47l-1.82-8.12Z"
    />
    <polygon
      fill="#f90065"
      points="391.31 154.86 399.08 164.31 405.63 164.31 415.72 151.26 403.22 146.04 391.31 154.86"
    />
    <polygon
      fill="#f2f2f2"
      points="389.62 125.2 403.22 146.04 387.62 174.2 375.62 135.2 389.62 125.2"
    />
    <polygon
      fill="#f2f2f2"
      points="418.42 174.2 403.22 146.04 438.62 117.2 446.44 124.45 418.42 174.2"
    />
    <path
      fill="#b8c2d8"
      d="m444.16,124.56c-8.17,34.88-40.49,185.07-11.02,263.97,0,0,2.61,20.14,30.48.66s93-39,117-27l-73-236-42.09-1.71-12.53-4.66c-3.78-1.4-7.92.82-8.84,4.74Z"
    />
    <path d="m445.82,368.28c-8.39-52.1,7.32-163.59,8.57-172.27l-16.88-2.46,20.88-9.55c-2.55-30.7.59-46.64,1.78-52.65.1-.54.19-.99.26-1.37l1.05.19c-.07.38-.16.84-.27,1.38-1.18,6-4.32,21.94-1.73,52.73l.03.37-18.27,8.35,14.35,2.09-.08.53c-.17,1.18-17.32,118.68-8.65,172.47l-1.05.17Z" />
    <path
      fill="#ff9996"
      d="m462.62,272.2s-36-5-51,9c0,0-31,9.65-43,21s-40.66,32.91-40.66,32.91l49.66,3.09,35-6,54.21-9.11c34.79-2.89,31.79-55.89-4.21-50.89Z"
    />
    <path
      fill="#1B3E75"
      d="m504.24,550.11c-30.61-11.83-182.49-70.65-216.61-85.92l-.03.05c-10.76-8.78-24.5-14.05-39.47-14.05-34.52,0-62.5,27.98-62.5,62.5,0,30.85,22.35,56.46,51.74,61.56,40.92,13.99,132.06,41.92,259.26,38.94,17.67,0,32-14.33,32-32,0-15.05-10.39-27.66-24.39-31.08Z"
    />
    <path
      fill="#1B3E75"
      d="m468.55,542.63c-.02-26.23-21.3-47.48-47.53-47.47-18.51.01-34.53,10.62-42.36,26.08l-.12-.05-.82,2.02c-.51,1.13-.98,2.28-1.4,3.46l-83.55,205.49c-2.6,5-4.06,10.63-4.06,16.59.01,20.71,17.71,37.49,39.53,37.47,14.75-.01,27.59-7.7,34.37-19.07l.12.05,98.43-199.09c1.79-2.82,3.3-5.83,4.48-9.01h0s0,0,0,0c1.89-5.13,2.93-10.68,2.93-16.47Z"
    />
    <path
      fill="#b8c2d8"
      d="m380.36,133.67c-2.08,19.78-15.33,153.41-2.98,231.82,1.09,6.92-5.79,12.39-12.3,9.79-17.25-6.89-44.38-15.23-57.45-6.09l49-231,14-4,7.61-2.28c1.13-.34,2.25.58,2.12,1.76Z"
    />
    <polygon points="361.81 363.47 350.89 207.67 361.68 204.66 351.74 196.41 372.73 145.49 373.72 145.9 353.03 196.1 363.93 205.15 352.02 208.47 362.87 363.39 361.81 363.47" />
    <path
      fill="#ff9996"
      d="M307.12 351.23l-9.97.79c-7.85.63-15.62-1.91-21.59-7.03l-8.09-6.95 31.6-.85 9.96 6.15c3.51 2.17 2.21 7.56-1.9 7.88zM436.79 328.13l-66.2 24.49c-4.52 1.67-9.45 1.83-14.07.46l-24.89-9.88 29.8-1.53 56.71-18.45 18.66 4.92z"
    />
    <path
      fill="#ff9996"
      d="m348.12,353.23l-9.97.79c-7.85.63-15.62-1.91-21.59-7.03l-8.09-6.95,31.6-.85,9.96,6.15c3.51,2.17,2.21,7.56-1.9,7.88Z"
    />
    <path
      fill="#ff9996"
      d="m327.12,351.23l-9.97.79c-7.85.63-15.62-1.91-21.59-7.03l-8.09-6.95,31.6-.85,9.96,6.15c3.51,2.17,2.21,7.56-1.9,7.88Z"
    />
    <path d="m294.85,352.65c-7.15,0-14.2-2.58-19.64-7.25l-9.14-7.85,21.37-.58.03,1.07-18.6.5,7.04,6.04c5.82,5,13.55,7.52,21.2,6.91l9.97-.79.08,1.06-9.97.79c-.78.06-1.56.09-2.34.09Z" />
    <polygon
      fill="#b7b7b7"
      points="381.76 339.21 265.32 346.53 326.47 295.17 442.9 287.85 381.76 339.21"
    />
    <path d="m362.85,354.53c-2.19,0-4.39-.31-6.49-.94l-24.93-9.9.39-.99,24.89,9.88c4.43,1.32,9.31,1.16,13.69-.46l42.26-15.63.37,1-42.26,15.63c-2.53.94-5.22,1.41-7.91,1.41Z" />
    <path d="m335.85,354.65c-7.15,0-14.2-2.58-19.64-7.25l-8.09-6.95.7-.81,8.09,6.95c5.83,5,13.56,7.52,21.2,6.91l9.97-.79c1.26-.1,2.3-.74,2.92-1.8l.92.54c-.79,1.35-2.16,2.2-3.75,2.33l-9.97.79c-.78.06-1.56.09-2.34.09Z" />
    <path d="m314.85,352.65c-7.15,0-14.2-2.58-19.64-7.25l-8.09-6.95.7-.81,8.09,6.95c5.82,5,13.55,7.52,21.2,6.91l6.51-.52.08,1.06-6.51.52c-.78.06-1.56.09-2.34.09Z" />
    <polygon
      fill="#b8c2d8"
      points="379.85 335.52 274.83 342.66 312.6 311.74 417.62 304.6 379.85 335.52"
    />
    <polygon
      fill="#b8c2d8"
      points="376.59 305.71 337.89 307.48 351.38 296.19 390.09 294.42 376.59 305.71"
    />
    <rect
      width="19.03"
      height="1.07"
      x="358.11"
      y="294.66"
      transform="rotate(-2.99 367.288 295.044)"
    />
    <rect
      width="44.05"
      height="1.07"
      x="375.1"
      y="321.16"
      transform="rotate(-39.51 397.126 321.697)"
    />
    <polygon
      fill="#e5e5e5"
      points="382.06 339.08 265.2 346.54 213.62 267.2 214.62 265.2 329.05 257.58 382.06 339.08"
    />
    <polygon
      fill="#4f4f4f"
      points="383.62 342.2 265.7 350.11 265.29 346.5 382.06 339.05 383.62 342.2"
    />
    <polygon
      fill="#4f4f4f"
      points="382.06 339.05 442.9 287.85 443.62 292.2 383.62 342.2 382.06 339.05"
    />
    <path d="M425.37 91.96c-.42.57-1.35.23-1.28-.47.31-3.26-.27-6.56 1.53-9.29 1.44-2.18 3.23-6.62 1-9-1.68-1.8-5.38-1.1-9-1-10.77.31-30.8.55-39-10-2.51-3.23-5.03-10.84-5.03-14.93s.98-8.12 1.95-12.09c8.37 6.3 18.26 10.57 28.58 12.36 6.67 1.15 13.65 1.32 19.81 4.12s11.39 9.36 9.82 15.94c4.68-1.24 10.06 1.21 12.21 5.55 2.1 4.25-3.33 12.06-3.33 12.06-2.81-1.87-6.46-3.07-10-1-3 1.75-5.13 4.87-7.25 7.76zM521.62 722.2s15 3 20-6l37-145c0-7-.1-9.85-8.46-11.61-1.04-.22-2.15-.43-3.34-.63 0 0-21.2 115.33-45.2 163.24z" />
    <path
      fill="#ff9996"
      d="m425.62,274.2s-28.31,9.8-42.39,14.65c-12.61,4.35-.74,9.97,9.39,12.35,10.39,2.43,37.52-11.73,37.52-11.73l-4.52-15.27Z"
    />
    <path
      fill="#56576b"
      d="m186.53,727.55s6.1-19.36,65.1-.36c13.7,4.41,38.92,8.74,39,9,9.72,32.36,45.66,34.02,64,28,5.45-1.79,8,3,8,3l-10,41c-60.68-10.59-117.89-34.29-166.1-80.64Z"
    />
    <path d="m184.72,745.51c-5.09-14.31,6.91-35.31,26.48-16.78,13.24,12.54,26.84,24.58,41.3,35.67,23.53,18.05,53.49,25.83,82.99,29.92,4.78.66,9.86,1.36,13.57,4.41,3.71,3.05,4.6,8.74,1.58,12.48-17,21-60,1-66.83-2.76-25.02-13.8-34.17-17.24-60.02-27.48-15.41-6.11-33.03-18.49-39.06-35.44Z" />
    <path
      fill="#56576b"
      d="m490.62,613.2s20,78,21,93c.78,11.68,6,19.25,17,15,9.33-3.6,33.78-117.3,40.98-151.7,1.12-5.35,2.6-9.56-2.78-10.54l-63.2-8.76s32,33-13,63Z"
    />
    <path
      fill="#b8c2d8"
      d="m356.62,138.2s-130,50-147.6,67.8c-16.08,16.27,3.88,45.11,25.19,52.4,12.57,4.3,25.81,2.01,36.09-5.02l79.32-39.18,7-76Z"
    />
    <polygon
      fill="#f2f2f2"
      points="124.62 146.2 178.44 115.43 191.73 130.81 142.62 167.2 124.62 146.2"
    />
    <path
      fill="#b8c2d8"
      d="m261.03,180c-1.94-.66-69.29-55.54-69.29-55.54l-59.11,39.74,83.34,81.44c4.62,5.71,10.83,10.22,18.26,12.76,21.32,7.29,44.6-4.35,52-26,7.4-21.65-3.88-45.11-25.19-52.4Z"
    />
    <path d="m260.85,180.5c-.36-.12-1.44-.49-42.87-34.04l.67-.83c35.56,28.8,41.93,33.58,42.56,33.87l-.36,1Z" />
    <path
      fill="#b8c2d8"
      d="m478.62,184.2c1,1-22-45,11-55,33-10,44,1,58,23s68.62,110.52,68.62,110.52c0,0,20.38,37.48-22.62,49.48-39.03,10.89-54-30-54-30l-61-98Z"
    />
    <rect
      width="1.07"
      height="100.14"
      x="504.55"
      y="176.63"
      transform="rotate(-31.9 505.075 226.707)"
    />
    <polygon
      fill="#f2f2f2"
      points="443.62 268.2 457.62 328.2 485.62 322.2 464.87 264.48 443.62 268.2"
    />
    <path
      fill="#b8c2d8"
      d="m456.99,265.81l12.63,62.38,119.42-15.41c3.65-.47,7.17-1.61,10.39-3.4,9.24-5.15,25.52-17.41,18.2-37.19-10-27-27.51-27.71-42.25-25.86-14.75,1.86-118.38,19.47-118.38,19.47Z"
    />
    <polygon points="387.48 175.55 378.58 146.63 379.6 146.31 387.77 172.84 402.59 146.07 392.36 130.37 393.26 129.79 403.84 146.02 387.48 175.55" />
    <polygon points="418.41 175.3 402.75 146.3 403.69 145.79 418.43 173.09 432.67 147.8 433.6 148.33 418.41 175.3" />
    <path d="M457.08 266.34l-.09-.51-.52.13-.12-.54.54-.13 7.87-1.33c18.84-3.19 65.57-11.08 92.49-15.39l.17 1.05c-26.92 4.31-73.64 12.2-92.48 15.39l-7.87 1.34zM239.75 188.37l-.47-.96c43.5-21.34 116.42-49.44 117.15-49.72l.38 1c-.73.28-73.61 28.36-117.07 49.68zM395.38 302.01c-1.05 0-2.02-.09-2.88-.29-6.92-1.62-15.06-4.81-15.25-8.48-.1-1.91 1.8-3.51 5.8-4.89 5.18-1.78 12.27-4.24 19.18-6.62l.35 1.01c-6.91 2.39-14 4.84-19.18 6.62-3.4 1.17-5.15 2.49-5.09 3.83.14 2.74 7.36 5.84 14.43 7.49 10.09 2.37 36.88-11.54 37.15-11.69l.49.95c-1.02.53-23.26 12.07-35 12.07z" />
    <rect
      width="95.51"
      height="1.07"
      x="294.72"
      y="204.37"
      transform="rotate(-78.02 342.49 204.901)"
    />
    <rect
      width="100.23"
      height="1.07"
      x="494.21"
      y="318.25"
      transform="rotate(-7.36 544.277 318.762)"
    />
    <rect
      width="163.98"
      height="1.07"
      x="310.63"
      y="481.66"
      transform="rotate(-68.88 392.625 482.193)"
    />
    <rect
      width="1.07"
      height="83.93"
      x="338.59"
      y="443.23"
      transform="rotate(-68.33 339.08 485.182)"
    />
    <ellipse
      cx="294.11"
      cy="305.67"
      fill="#fff"
      rx="8.97"
      ry="11.64"
      transform="rotate(-41.21 294.137 305.679)"
    />
    <rect
      width="1.07"
      height="72.95"
      x="348.59"
      y="251.72"
      transform="rotate(-33.25 349.184 288.215)"
    />
    <polygon
      fill="#ffcc83"
      points="120.43 86.4 44.71 11.01 152.69 -88.76 228.42 -13.36 120.43 86.4"
    />
    <path d="m120.42,86.98L44.11,10.99l108.6-100.33L229.02-13.35l-108.6,100.33ZM45.31,11.02l75.13,74.8L227.81-13.37l-75.13-74.8L45.31,11.02Z" />
    <polygon
      fill="#fff"
      points="122.1 77.36 54.19 9.75 151.03 -79.72 218.94 -12.1 122.1 77.36"
    />
    <path d="m122.09,77.88L53.65,9.74l97.39-89.97L219.48-12.09l-97.39,89.97ZM54.73,9.76l67.38,67.08L218.4-12.11l-67.38-67.08L54.73,9.76Z" />
    <polygon
      fill="#f90065"
      points="140.64 11.17 138.39 -1.35 112.47 10.48 109.67 -8.25 88.15 .48 87.41 -1.33 111.24 -11 114.03 7.62 139.88 -4.19 142.18 8.65 177.75 -2.25 182.99 7.46 181.27 8.39 176.79 .1 140.64 11.17"
    />
    <polygon points="135.56 58.13 78.09 .91 78.34 .68 136.78 -53.31 137.22 -52.82 79.04 .93 136.02 57.66 135.56 58.13" />
    <path
      fill="#ff9996"
      d="m135.62,72.2l-8.46-32.32c-1.59-6.07-.11-12.53,3.95-17.3h0c2.07-2.43,5.96-1.88,7.27,1.03,5.67,12.6,18.81,39.6,27.24,39.6l-30,9Z"
    />
    <path d="m165.62,63.73c-8.49,0-21.02-25-27.73-39.91-.54-1.2-1.64-2.02-2.94-2.21-1.3-.19-2.59.3-3.44,1.31-3.95,4.64-5.38,10.93-3.84,16.82l4.74,18.1-1.03.27-4.74-18.1c-1.63-6.23-.11-12.88,4.06-17.79,1.09-1.28,2.74-1.91,4.41-1.67s3.07,1.29,3.76,2.82c15.96,35.45,24.03,39.28,26.75,39.28v1.07Z" />
  </g>
  <g transform="rotate(-19.542 881.627 -2322.619) scale(.78365)">
    <path
      fill="#112e5b"
      d="m230.22,80.18l32.9,187.71c1.22,6.95-4.13,13.32-11.19,13.32h-69.95l48.24-201.03Z"
    />
    <path
      fill="#f2f2f2"
      d="M111.27 72.51c-2.1 0-3.89-1.61-4.07-3.74-.35-4.14-3.71-7.02-8.18-7.02-2.26 0-4.09-1.83-4.09-4.09s1.83-4.09 4.09-4.09c8.75 0 15.61 6.1 16.32 14.51.19 2.25-1.48 4.23-3.73 4.42-.12 0-.23.01-.35.01zM173.39 72.51c-2.1 0-3.89-1.61-4.07-3.74-.35-4.14-3.71-7.02-8.18-7.02-2.26 0-4.09-1.83-4.09-4.09s1.83-4.09 4.09-4.09c8.75 0 15.61 6.1 16.32 14.51.19 2.25-1.48 4.23-3.73 4.42-.12 0-.23.01-.35.01z"
    />
    <path
      fill="#ffcc83"
      d="m193.24,281.21H18.42c-6.35,0-10.84-5.15-10.04-11.49l24.03-189.54c.8-6.35,6.6-11.49,12.95-11.49h174.82c6.35,0,10.84,5.15,10.04,11.49l-24.03,189.54c-.8,6.35-6.6,11.49-12.95,11.49Z"
    />
    <polygon
      fill="#fff"
      points="190.51 264.46 25.4 264.46 46.33 99.34 211.45 99.34 190.51 264.46"
    />
    <path
      fill="#f90065"
      d="m95.3,230.13l12.23-96.45h-15.03s-7.35,16.35-31.34,16.35l-1.79,14.13h23.99l-8.36,65.97h20.3Z"
    />
    <path d="m96.07,231h-22.06l8.36-65.97h-23.99l2.01-15.88h.77c12.08,0,19.74-4.3,24.04-7.91,4.66-3.91,6.49-7.89,6.51-7.93l.23-.51h16.58s-.12.98-.12.98l-12.33,97.22Zm-20.08-1.75h18.54l12.01-94.71h-13.5c-1.52,2.8-9.83,16.03-31.11,16.34l-1.57,12.39h23.99l-8.36,65.97Z" />
    <path
      fill="#f90065"
      d="m145.56,161.89l1.3-10.23h27.69l2.28-17.98h-51.68l-3.87,30.52-1.29,10.17-.18,1.42c-.2,1.57,1.18,2.72,2.73,2.22,3.18-1.03,6.6-1.61,10.11-1.61,14.27,0,25.07,6.09,23.61,17.63s-14.01,19.26-28.28,19.26c-3.96,0-7.61-.73-10.8-2.02-.86-.35-1.9.33-2.03,1.29l-1.75,13.84c-.08.6.24,1.14.79,1.33,4.65,1.56,9.82,2.41,15.35,2.41,33.22,0,44.81-18.64,47.22-37.6,2.15-16.92-11.55-28.37-31.18-30.64Z"
    />
    <path d="m129.53,231c-5.5,0-10.76-.83-15.63-2.46-.94-.31-1.51-1.25-1.38-2.27l1.75-13.84c.09-.75.55-1.42,1.22-1.82.63-.37,1.36-.44,2-.18,3.21,1.3,6.73,1.96,10.47,1.96,14.53,0,26.06-7.78,27.42-18.5.5-3.9-.46-7.25-2.84-9.95-3.75-4.25-11-6.69-19.89-6.69-3.33,0-6.64.53-9.84,1.57-1.01.33-2.08.14-2.85-.5-.77-.63-1.14-1.63-1.01-2.66l5.44-42.87h53.44l-2.5,19.73h-27.69l-1.09,8.6c11.49,1.5,20.76,6.09,26.16,12.98,4.09,5.21,5.79,11.62,4.91,18.53-1.4,11.07-5.55,19.96-12.32,26.43-8.28,7.92-20.31,11.93-35.77,11.93Zm-12.84-18.96c-.14,0-.26.06-.31.09-.2.12-.34.32-.37.53l-1.75,13.84c-.02.15.02.33.2.39,4.69,1.57,9.76,2.37,15.07,2.37,34.45,0,44.22-20.03,46.35-36.84.83-6.53-.7-12.32-4.55-17.23-5.25-6.69-14.44-11.11-25.87-12.43l-.88-.1,1.5-11.87h27.69l2.06-16.24h-49.92l-5.24,41.34c-.06.44.09.84.39,1.1.32.26.75.33,1.2.18,3.38-1.1,6.87-1.65,10.38-1.65,9.54,0,17.07,2.59,21.21,7.28,2.73,3.1,3.83,6.91,3.27,11.33-1.47,11.6-13.73,20.03-29.15,20.03-3.96,0-7.71-.7-11.13-2.09-.05-.02-.1-.03-.15-.03Z" />
    <circle cx="158.7" cy="85.45" r="5.72" fill="#112e5b" />
    <path
      fill="#f2f2f2"
      d="m157.73,88.72c-4.96,0-9.39-1.93-12.48-5.44-3.02-3.43-4.36-7.92-3.76-12.65,1.21-9.57,9.85-17.06,19.66-17.06,2.26,0,4.09,1.83,4.09,4.09s-1.83,4.09-4.09,4.09c-5.58,0-10.87,4.54-11.55,9.91-.3,2.37.33,4.57,1.78,6.21,1.52,1.72,3.77,2.67,6.35,2.67,2.26,0,4.09,1.83,4.09,4.09s-1.83,4.09-4.09,4.09Z"
    />
    <circle cx="96.57" cy="85.45" r="5.72" fill="#112e5b" />
    <path
      fill="#f2f2f2"
      d="m95.61,88.72c-4.96,0-9.39-1.93-12.49-5.44-3.02-3.43-4.35-7.92-3.75-12.65,1.21-9.57,9.85-17.06,19.66-17.06,2.26,0,4.09,1.83,4.09,4.09s-1.83,4.09-4.09,4.09c-5.58,0-10.87,4.54-11.55,9.91-.3,2.37.33,4.57,1.78,6.22,1.52,1.72,3.77,2.67,6.35,2.67,2.26,0,4.09,1.83,4.09,4.09s-1.83,4.09-4.09,4.09Z"
    />
    <rect
      width="166.48"
      height="1.75"
      x="-47.97"
      y="180.21"
      transform="rotate(-82.68 35.263 181.076)"
    />
    <rect
      width="112.13"
      height="1.75"
      x="-32.24"
      y="149.96"
      transform="rotate(-82.45 23.83 150.847)"
    />
    <rect width="67.03" height="1.75" x="153.79" y="68.23" />
    <rect width="179.83" height="1.75" x="72.05" y="280.75" />
    <path d="M82.47 83.85c-3.19-3.62-4.6-8.35-3.97-13.33 1.27-9.99 10.28-17.82 20.53-17.82v1.75c-9.38 0-17.63 7.16-18.79 16.3-.57 4.48.69 8.72 3.54 11.96l-1.31 1.16zM144.59 83.85c-3.19-3.62-4.6-8.35-3.97-13.33 1.27-9.99 10.28-17.82 20.53-17.82v1.75c-9.38 0-17.63 7.16-18.79 16.3-.57 4.48.69 8.72 3.54 11.96l-1.31 1.16z" />
  </g>
  <g transform="rotate(35.637 -234.563 1769.318) scale(.86626)">
    <path
      fill="#f90065"
      d="m164.89,68.47v15.63c0,2.92-2.02,5.29-4.52,5.29H20.2c-2.5,0-4.52,2.37-4.52,5.29v164.17c0,2.92,2.02,5.29,4.52,5.29h235.66c2.5,0,4.52-2.37,4.52-5.29V68.47c0-2.92-2.02-5.29-4.52-5.29h-86.45c-2.5,0-4.52,2.37-4.52,5.29Z"
    />
    <path
      fill="#ffcc83"
      d="m170.86,77.21v15.63c0,2.92-2.02,5.29-4.52,5.29H12.74c-2.5,0-4.52,2.37-4.52,5.29v164.17c0,2.92,2.02,5.29,4.52,5.29h246.1c2.5,0,4.52-2.37,4.52-5.29V77.21c0-2.92-2.02-5.29-4.52-5.29h-83.47c-2.5,0-4.52,2.37-4.52,5.29Z"
    />
    <rect width="1.75" height="162.52" x="8.1" y="104.25" />
    <rect width="134.28" height="1.75" x="26.13" y="98.13" />
    <rect width="85.05" height="1.75" x="170.11" y="61.43" />
  </g>
</svg>